<svg width="26" height="49" viewBox="0 0 26 49" fill="none" xmlns="http://www.w3.org/2000/svg">
<path d="M6.12305 35V15.0938H11.7422C13.474 15.0938 15.0052 15.4766 16.3359 16.2422C17.6667 17.0078 18.6921 18.097 19.4121 19.5098C20.1413 20.9225 20.5104 22.5449 20.5195 24.377V25.6484C20.5195 27.526 20.1549 29.1712 19.4258 30.584C18.7057 31.9967 17.6712 33.0814 16.3223 33.8379C14.9824 34.5944 13.4193 34.9818 11.6328 35H6.12305ZM8.74805 17.2539V32.8535H11.5098C13.5332 32.8535 15.1055 32.2246 16.2266 30.9668C17.3568 29.709 17.9219 27.918 17.9219 25.5938V24.4316C17.9219 22.1712 17.3887 20.4167 16.3223 19.168C15.265 17.9102 13.7611 17.2721 11.8105 17.2539H8.74805Z" fill="white"/>
<path d="M14.502 5.71387H11.4209V8.2334H15V9H10.4834V1.89062H14.9512V2.66211H11.4209V4.94727H14.502V5.71387Z" fill="#787878"/>
<path d="M12.5098 42.6152L14.2139 39.8906H15.3174L13.0713 43.416L15.3711 47H14.2578L12.5098 44.2266L10.752 47H9.64355L11.9482 43.416L9.69727 39.8906H10.7959L12.5098 42.6152Z" fill="#787878"/>
</svg>
