<svg width="26" height="49" viewBox="0 0 26 49" fill="none" xmlns="http://www.w3.org/2000/svg">
<path d="M10.416 32.8535H19.8496V35H7.77734V15.0938H10.416V32.8535Z" fill="white"/>
<path d="M15.3564 5.6748C15.3564 6.37142 15.2393 6.98014 15.0049 7.50098C14.7705 8.01855 14.4385 8.41406 14.0088 8.6875C13.5791 8.96094 13.0778 9.09766 12.5049 9.09766C11.945 9.09766 11.4486 8.96094 11.0156 8.6875C10.5827 8.41081 10.2458 8.01855 10.0049 7.51074C9.76725 6.99967 9.64518 6.40885 9.63867 5.73828V5.22559C9.63867 4.54199 9.75749 3.93815 9.99512 3.41406C10.2327 2.88997 10.568 2.48958 11.001 2.21289C11.4372 1.93294 11.9352 1.79297 12.4951 1.79297C13.0648 1.79297 13.5661 1.93132 13.999 2.20801C14.4352 2.48145 14.7705 2.88021 15.0049 3.4043C15.2393 3.92513 15.3564 4.53223 15.3564 5.22559V5.6748ZM14.4238 5.21582C14.4238 4.37272 14.2546 3.72656 13.916 3.27734C13.5775 2.82487 13.1038 2.59863 12.4951 2.59863C11.9027 2.59863 11.4355 2.82487 11.0938 3.27734C10.7552 3.72656 10.5811 4.35156 10.5713 5.15234V5.6748C10.5713 6.49186 10.7422 7.13477 11.084 7.60352C11.429 8.06901 11.9027 8.30176 12.5049 8.30176C13.1104 8.30176 13.5791 8.08203 13.9111 7.64258C14.2432 7.19987 14.4141 6.56673 14.4238 5.74316V5.21582Z" fill="#787878"/>
<path d="M11.1084 44.2168V47H10.1709V39.8906H12.793C13.571 39.8906 14.1797 40.0892 14.6191 40.4863C15.0618 40.8835 15.2832 41.4092 15.2832 42.0635C15.2832 42.7536 15.0667 43.2858 14.6338 43.6602C14.2041 44.0312 13.5872 44.2168 12.7832 44.2168H11.1084ZM11.1084 43.4502H12.793C13.2943 43.4502 13.6784 43.333 13.9453 43.0986C14.2122 42.861 14.3457 42.5192 14.3457 42.0732C14.3457 41.6501 14.2122 41.3115 13.9453 41.0576C13.6784 40.8037 13.3122 40.6719 12.8467 40.6621H11.1084V43.4502Z" fill="#787878"/>
</svg>
