<svg width="26" height="40" viewBox="0 0 26 40" fill="none" xmlns="http://www.w3.org/2000/svg">
<path d="M17.1699 29.8047H8.83008L6.95703 35H4.25L11.8516 15.0938H14.1484L21.7637 35H19.0703L17.1699 29.8047ZM9.62305 27.6445H16.3906L13 18.334L9.62305 27.6445Z" fill="white"/>
<path d="M15.3174 5.6748C15.3174 6.36165 15.2083 6.9541 14.9902 7.45215C14.7721 7.94694 14.4661 8.33431 14.0723 8.61426L15.3418 9.61035L14.7021 10.2012L13.2031 9.00977C12.9688 9.06836 12.7214 9.09766 12.4609 9.09766C11.901 9.09766 11.4046 8.96094 10.9717 8.6875C10.5387 8.41081 10.2018 8.01855 9.96094 7.51074C9.72331 6.99967 9.60124 6.40885 9.59473 5.73828V5.22559C9.59473 4.54199 9.71354 3.93815 9.95117 3.41406C10.1888 2.88997 10.5241 2.48958 10.957 2.21289C11.3932 1.93294 11.8913 1.79297 12.4512 1.79297C13.0241 1.79297 13.527 1.93132 13.96 2.20801C14.3962 2.4847 14.7314 2.88346 14.9658 3.4043C15.2002 3.92188 15.3174 4.52734 15.3174 5.2207V5.6748ZM14.3799 5.21582C14.3799 4.37923 14.2122 3.7347 13.877 3.28223C13.5449 2.8265 13.0697 2.59863 12.4512 2.59863C11.862 2.59863 11.3965 2.82487 11.0547 3.27734C10.7161 3.72656 10.542 4.35156 10.5322 5.15234V5.6748C10.5322 6.48861 10.7015 7.12988 11.04 7.59863C11.3818 8.06738 11.8555 8.30176 12.4609 8.30176C13.0664 8.30176 13.5352 8.08203 13.8672 7.64258C14.1992 7.19987 14.3701 6.56673 14.3799 5.74316V5.21582Z" fill="#787878"/>
</svg>
