<svg width="26" height="49" viewBox="0 0 26 49" fill="none" xmlns="http://www.w3.org/2000/svg">
<path d="M17.1699 29.8047H8.83008L6.95703 35H4.25L11.8516 15.0938H14.1484L21.7637 35H19.0703L17.1699 29.8047ZM9.62305 27.6445H16.3906L13 18.334L9.62305 27.6445Z" fill="white"/>
<path d="M15.3174 5.6748C15.3174 6.36165 15.2083 6.9541 14.9902 7.45215C14.7721 7.94694 14.4661 8.33431 14.0723 8.61426L15.3418 9.61035L14.7021 10.2012L13.2031 9.00977C12.9688 9.06836 12.7214 9.09766 12.4609 9.09766C11.901 9.09766 11.4046 8.96094 10.9717 8.6875C10.5387 8.41081 10.2018 8.01855 9.96094 7.51074C9.72331 6.99967 9.60124 6.40885 9.59473 5.73828V5.22559C9.59473 4.54199 9.71354 3.93815 9.95117 3.41406C10.1888 2.88997 10.5241 2.48958 10.957 2.21289C11.3932 1.93294 11.8913 1.79297 12.4512 1.79297C13.0241 1.79297 13.527 1.93132 13.96 2.20801C14.3962 2.4847 14.7314 2.88346 14.9658 3.4043C15.2002 3.92188 15.3174 4.52734 15.3174 5.2207V5.6748ZM14.3799 5.21582C14.3799 4.37923 14.2122 3.7347 13.877 3.28223C13.5449 2.8265 13.0697 2.59863 12.4512 2.59863C11.862 2.59863 11.3965 2.82487 11.0547 3.27734C10.7161 3.72656 10.542 4.35156 10.5322 5.15234V5.6748C10.5322 6.48861 10.7015 7.12988 11.04 7.59863C11.3818 8.06738 11.8555 8.30176 12.4609 8.30176C13.0664 8.30176 13.5352 8.08203 13.8672 7.64258C14.1992 7.19987 14.3701 6.56673 14.3799 5.74316V5.21582Z" fill="#787878"/>
<path d="M7.15527 43.8311C6.35124 43.5999 5.7653 43.3167 5.39746 42.9814C5.03288 42.6429 4.85059 42.2262 4.85059 41.7314C4.85059 41.1715 5.07357 40.7093 5.51953 40.3447C5.96875 39.9769 6.55143 39.793 7.26758 39.793C7.75586 39.793 8.19043 39.8874 8.57129 40.0762C8.9554 40.265 9.25163 40.5254 9.45996 40.8574C9.67155 41.1895 9.77734 41.5524 9.77734 41.9463H8.83496C8.83496 41.5166 8.69824 41.1797 8.4248 40.9355C8.15137 40.6882 7.76562 40.5645 7.26758 40.5645C6.80534 40.5645 6.44401 40.667 6.18359 40.8721C5.92643 41.0739 5.79785 41.3555 5.79785 41.7168C5.79785 42.0065 5.91992 42.2523 6.16406 42.4541C6.41146 42.6527 6.82975 42.835 7.41895 43.001C8.01139 43.167 8.47363 43.3509 8.80566 43.5527C9.14095 43.7513 9.38835 43.984 9.54785 44.251C9.71061 44.5179 9.79199 44.832 9.79199 45.1934C9.79199 45.7695 9.56738 46.2318 9.11816 46.5801C8.66895 46.9251 8.06836 47.0977 7.31641 47.0977C6.82812 47.0977 6.3724 47.0049 5.94922 46.8193C5.52604 46.6305 5.19889 46.3734 4.96777 46.0479C4.73991 45.7223 4.62598 45.3529 4.62598 44.9395H5.56836C5.56836 45.3691 5.72624 45.7093 6.04199 45.96C6.361 46.2074 6.78581 46.3311 7.31641 46.3311C7.8112 46.3311 8.19043 46.2301 8.4541 46.0283C8.71777 45.8265 8.84961 45.5514 8.84961 45.2031C8.84961 44.8548 8.72754 44.5863 8.4834 44.3975C8.23926 44.2054 7.79655 44.0166 7.15527 43.8311ZM14.9189 43.8604H11.9355V47H10.998V39.8906H15.4023V40.6621H11.9355V43.0938H14.9189V43.8604ZM21.5352 40.6621H19.25V47H18.3174V40.6621H16.0371V39.8906H21.5352V40.6621Z" fill="#787878"/>
</svg>
