<svg width="26" height="49" viewBox="0 0 26 49" fill="none" xmlns="http://www.w3.org/2000/svg">
<path d="M18.5508 26.209H10.1973V35H7.57227V15.0938H19.9043V17.2539H10.1973V24.0625H18.5508V26.209Z" fill="white"/>
<path d="M12.8516 6.12402H11.1816V9H10.2393V1.89062H12.5928C13.3936 1.89062 14.0088 2.07292 14.4385 2.4375C14.8714 2.80208 15.0879 3.33268 15.0879 4.0293C15.0879 4.47201 14.9674 4.85775 14.7266 5.18652C14.4889 5.5153 14.1569 5.76107 13.7305 5.92383L15.4004 8.94141V9H14.3945L12.8516 6.12402ZM11.1816 5.35742H12.6221C13.0876 5.35742 13.457 5.23698 13.7305 4.99609C14.0072 4.75521 14.1455 4.43294 14.1455 4.0293C14.1455 3.58984 14.0137 3.25293 13.75 3.01855C13.4896 2.78418 13.112 2.66536 12.6172 2.66211H11.1816V5.35742Z" fill="#787878"/>
<path d="M15.2979 44.7441C15.21 45.4961 14.9316 46.0771 14.4629 46.4873C13.9974 46.8942 13.3773 47.0977 12.6025 47.0977C11.7627 47.0977 11.0889 46.7965 10.5811 46.1943C10.0765 45.5921 9.82422 44.7865 9.82422 43.7773V43.0938C9.82422 42.4329 9.94141 41.8519 10.1758 41.3506C10.4134 40.8493 10.7487 40.4652 11.1816 40.1982C11.6146 39.9281 12.1159 39.793 12.6855 39.793C13.4408 39.793 14.0462 40.0046 14.502 40.4277C14.9577 40.8477 15.223 41.4303 15.2979 42.1758H14.3555C14.2741 41.6094 14.0967 41.1992 13.8232 40.9453C13.5531 40.6914 13.1738 40.5645 12.6855 40.5645C12.0866 40.5645 11.6162 40.7858 11.2744 41.2285C10.9359 41.6712 10.7666 42.3011 10.7666 43.1182V43.8066C10.7666 44.5781 10.9277 45.1917 11.25 45.6475C11.5723 46.1032 12.0231 46.3311 12.6025 46.3311C13.1234 46.3311 13.5221 46.2139 13.7988 45.9795C14.0788 45.7419 14.2643 45.3301 14.3555 44.7441H15.2979Z" fill="#787878"/>
</svg>
