<svg width="26" height="49" viewBox="0 0 26 49" fill="none" xmlns="http://www.w3.org/2000/svg">
<path d="M20.4648 32.3887C19.7904 33.3548 18.847 34.0794 17.6348 34.5625C16.4316 35.0365 15.028 35.2734 13.4238 35.2734C11.8014 35.2734 10.3613 34.8952 9.10352 34.1387C7.8457 33.373 6.87044 32.2884 6.17773 30.8848C5.49414 29.4811 5.14323 27.8542 5.125 26.0039V24.2676C5.125 21.2689 5.82227 18.9447 7.2168 17.2949C8.62044 15.6452 10.5892 14.8203 13.123 14.8203C15.2012 14.8203 16.8737 15.3535 18.1406 16.4199C19.4076 17.4772 20.1823 18.9811 20.4648 20.9316H17.8398C17.3477 18.2975 15.7799 16.9805 13.1367 16.9805C11.3776 16.9805 10.0423 17.6003 9.13086 18.8398C8.22852 20.0703 7.77279 21.8568 7.76367 24.1992V25.8262C7.76367 28.0592 8.27409 29.8366 9.29492 31.1582C10.3158 32.4707 11.6966 33.127 13.4375 33.127C14.4219 33.127 15.2832 33.0176 16.0215 32.7988C16.7598 32.5801 17.3704 32.2109 17.8535 31.6914V27.2207H13.2461V25.0879H20.4648V32.3887Z" fill="white"/>
<path d="M15.2539 2.66211H12.9688V9H12.0361V2.66211H9.75586V1.89062H15.2539V2.66211Z" fill="#787878"/>
<path d="M12.4951 45.7549L14.5264 39.8906H15.5518L12.915 47H12.085L9.45312 39.8906H10.4736L12.4951 45.7549Z" fill="#787878"/>
</svg>
