<svg width="26" height="49" viewBox="0 0 26 49" fill="none" xmlns="http://www.w3.org/2000/svg">
<path d="M15.9258 15.0938H18.5645V29.1895C18.5645 31.0944 17.9902 32.5846 16.8418 33.6602C15.7025 34.7357 14.1803 35.2734 12.2754 35.2734C10.2975 35.2734 8.75716 34.7676 7.6543 33.7559C6.55143 32.7441 6 31.3268 6 29.5039H8.625C8.625 30.6432 8.9349 31.5319 9.55469 32.1699C10.1836 32.8079 11.0905 33.127 12.2754 33.127C13.36 33.127 14.235 32.7852 14.9004 32.1016C15.5749 31.418 15.9167 30.4609 15.9258 29.2305V15.0938Z" fill="white"/>
<path d="M15.0879 1.89062V6.72461C15.0846 7.39518 14.873 7.94368 14.4531 8.37012C14.0365 8.79655 13.4701 9.03581 12.7539 9.08789L12.5049 9.09766C11.7269 9.09766 11.1068 8.8877 10.6445 8.46777C10.1823 8.04785 9.94792 7.47005 9.94141 6.73438V1.89062H10.8691V6.70508C10.8691 7.2194 11.0107 7.61979 11.2939 7.90625C11.5771 8.18945 11.9808 8.33105 12.5049 8.33105C13.0355 8.33105 13.4408 8.18945 13.7207 7.90625C14.0039 7.62305 14.1455 7.22428 14.1455 6.70996V1.89062H15.0879Z" fill="#787878"/>
<path d="M15.2246 47H14.2822L10.7031 41.5215V47H9.76074V39.8906H10.7031L14.292 45.3936V39.8906H15.2246V47Z" fill="#787878"/>
</svg>
