<svg width="26" height="49" viewBox="0 0 26 49" fill="none" xmlns="http://www.w3.org/2000/svg">
<path d="M12.8633 26.127C10.612 25.4798 8.97135 24.6868 7.94141 23.748C6.92057 22.8001 6.41016 21.6335 6.41016 20.248C6.41016 18.6803 7.03451 17.3861 8.2832 16.3652C9.54102 15.3353 11.1725 14.8203 13.1777 14.8203C14.5449 14.8203 15.7617 15.0846 16.8281 15.6133C17.9036 16.1419 18.7331 16.8711 19.3164 17.8008C19.9089 18.7305 20.2051 19.7467 20.2051 20.8496H17.5664C17.5664 19.6465 17.1836 18.7031 16.418 18.0195C15.6523 17.3268 14.5723 16.9805 13.1777 16.9805C11.8835 16.9805 10.8717 17.2676 10.1426 17.8418C9.42253 18.4069 9.0625 19.1953 9.0625 20.207C9.0625 21.0182 9.4043 21.7064 10.0879 22.2715C10.7806 22.8275 11.9518 23.3379 13.6016 23.8027C15.2604 24.2676 16.5547 24.7826 17.4844 25.3477C18.4232 25.9036 19.1159 26.5553 19.5625 27.3027C20.0182 28.0501 20.2461 28.9297 20.2461 29.9414C20.2461 31.5547 19.6172 32.849 18.3594 33.8242C17.1016 34.7904 15.4199 35.2734 13.3145 35.2734C11.9473 35.2734 10.6712 35.0137 9.48633 34.4941C8.30143 33.9655 7.38542 33.2454 6.73828 32.334C6.10026 31.4225 5.78125 30.388 5.78125 29.2305H8.41992C8.41992 30.4336 8.86198 31.3861 9.74609 32.0879C10.6393 32.7806 11.8288 33.127 13.3145 33.127C14.6999 33.127 15.7617 32.8444 16.5 32.2793C17.2383 31.7142 17.6074 30.944 17.6074 29.9688C17.6074 28.9935 17.2656 28.2415 16.582 27.7129C15.8984 27.1751 14.6589 26.6465 12.8633 26.127Z" fill="white"/>
<path d="M10.4199 6.75879L10.5566 7.69629L10.7568 6.85156L12.1631 1.89062H12.9541L14.3262 6.85156L14.5215 7.71094L14.6729 6.75391L15.7764 1.89062H16.7188L14.9951 9H14.1406L12.6758 3.81934L12.5635 3.27734L12.4512 3.81934L10.9326 9H10.0781L8.35938 1.89062H9.29688L10.4199 6.75879Z" fill="#787878"/>
<path d="M11.0352 46.2334H15.1025V47H9.92676V46.2969L13.8232 40.6621H9.99023V39.8906H14.9463V40.5791L11.0352 46.2334Z" fill="#787878"/>
</svg>
