<svg width="26" height="49" viewBox="0 0 26 49" fill="none" xmlns="http://www.w3.org/2000/svg">
<path d="M5.37109 35H8.00977V25.7988H18.0449V35H20.6699V15.0938H18.0449V23.6523H8.00977V15.0938H5.37109V35Z" fill="white"/>
<path d="M12.4902 5.45996L14.3457 1.89062H15.4102L12.959 6.34863V9H12.0215V6.34863L9.57031 1.89062H10.6445L12.4902 5.45996Z" fill="#787878"/>
<path d="M10.71 47V39.8906H13.0342C13.8057 39.8906 14.3851 40.0501 14.7725 40.3691C15.1631 40.6882 15.3584 41.1602 15.3584 41.7852C15.3584 42.1172 15.264 42.4118 15.0752 42.6689C14.8864 42.9229 14.6292 43.1198 14.3037 43.2598C14.6878 43.3672 14.9906 43.5723 15.2119 43.875C15.4365 44.1745 15.5488 44.5326 15.5488 44.9492C15.5488 45.5872 15.3421 46.0885 14.9287 46.4531C14.5153 46.8177 13.931 47 13.1758 47H10.71ZM11.6475 43.6748V46.2334H13.1953C13.6315 46.2334 13.9749 46.1211 14.2256 45.8965C14.4795 45.6686 14.6064 45.3561 14.6064 44.959C14.6064 44.1029 14.141 43.6748 13.21 43.6748H11.6475ZM11.6475 42.9229H13.0635C13.4736 42.9229 13.8008 42.8203 14.0449 42.6152C14.2923 42.4102 14.416 42.1318 14.416 41.7803C14.416 41.3896 14.3021 41.1064 14.0742 40.9307C13.8464 40.7516 13.4997 40.6621 13.0342 40.6621H11.6475V42.9229Z" fill="#787878"/>
</svg>
